<svg xmlns="http://www.w3.org/2000/svg" xmlns:xlink="http://www.w3.org/1999/xlink" width="200" zoomAndPan="magnify" viewBox="0 0 150 52.499999" height="70" preserveAspectRatio="xMidYMid meet" version="1.0"><defs><g/><clipPath id="c123128a99"><path d="M 126 24 L 149.292969 24 L 149.292969 45 L 126 45 Z M 126 24 " clip-rule="nonzero"/></clipPath></defs><g fill="#fece0b" fill-opacity="0.502"><g transform="translate(8.01675, 43.066536)"><g><path d="M -2.84375 -20.234375 C -2.925781 -20.597656 -2.960938 -20.921875 -2.953125 -21.203125 C -2.953125 -21.484375 -2.882812 -21.726562 -2.75 -21.9375 C -2.613281 -22.15625 -2.398438 -22.347656 -2.109375 -22.515625 C -1.828125 -22.679688 -1.441406 -22.816406 -0.953125 -22.921875 L 5.921875 -24.390625 C 6.628906 -24.546875 7.34375 -24.648438 8.0625 -24.703125 C 8.78125 -24.753906 9.476562 -24.75 10.15625 -24.6875 C 10.832031 -24.625 11.476562 -24.488281 12.09375 -24.28125 C 12.71875 -24.070312 13.285156 -23.765625 13.796875 -23.359375 C 14.304688 -22.960938 14.742188 -22.460938 15.109375 -21.859375 C 15.484375 -21.253906 15.765625 -20.519531 15.953125 -19.65625 C 16.222656 -18.394531 16.273438 -17.296875 16.109375 -16.359375 C 15.953125 -15.421875 15.644531 -14.601562 15.1875 -13.90625 C 14.726562 -13.21875 14.140625 -12.644531 13.421875 -12.1875 C 12.710938 -11.726562 11.945312 -11.34375 11.125 -11.03125 L 12.359375 -5.25 C 12.410156 -5.019531 12.441406 -4.753906 12.453125 -4.453125 C 12.472656 -4.160156 12.429688 -3.867188 12.328125 -3.578125 C 12.222656 -3.285156 12.019531 -3.015625 11.71875 -2.765625 C 11.414062 -2.523438 10.96875 -2.34375 10.375 -2.21875 L 3.78125 -0.8125 C 3.289062 -0.707031 2.878906 -0.664062 2.546875 -0.6875 C 2.222656 -0.71875 1.957031 -0.800781 1.75 -0.9375 C 1.539062 -1.070312 1.375 -1.265625 1.25 -1.515625 C 1.132812 -1.773438 1.039062 -2.082031 0.96875 -2.4375 Z M 13.828125 -18.984375 C 13.691406 -19.597656 13.488281 -20.144531 13.21875 -20.625 C 12.945312 -21.101562 12.597656 -21.5 12.171875 -21.8125 C 11.742188 -22.132812 11.238281 -22.363281 10.65625 -22.5 C 10.070312 -22.644531 9.398438 -22.6875 8.640625 -22.625 L 10.6875 -13.078125 C 11.40625 -13.347656 11.992188 -13.6875 12.453125 -14.09375 C 12.921875 -14.5 13.28125 -14.960938 13.53125 -15.484375 C 13.78125 -16.003906 13.925781 -16.5625 13.96875 -17.15625 C 14.007812 -17.75 13.960938 -18.359375 13.828125 -18.984375 Z M 13.828125 -18.984375 "/></g></g></g><g fill="#fece0b" fill-opacity="0.502"><g transform="translate(27.099063, 38.933223)"><g><path d="M 10.515625 -0.921875 C 9.734375 -0.804688 8.945312 -0.753906 8.15625 -0.765625 C 7.363281 -0.785156 6.585938 -0.878906 5.828125 -1.046875 C 5.078125 -1.222656 4.363281 -1.488281 3.6875 -1.84375 C 3.007812 -2.195312 2.398438 -2.65625 1.859375 -3.21875 C 1.328125 -3.789062 0.867188 -4.472656 0.484375 -5.265625 C 0.109375 -6.066406 -0.15625 -7.007812 -0.3125 -8.09375 C -0.457031 -9.144531 -0.457031 -10.109375 -0.3125 -10.984375 C -0.164062 -11.859375 0.0820312 -12.644531 0.4375 -13.34375 C 0.800781 -14.050781 1.257812 -14.664062 1.8125 -15.1875 C 2.363281 -15.707031 2.976562 -16.15625 3.65625 -16.53125 C 4.332031 -16.914062 5.046875 -17.222656 5.796875 -17.453125 C 6.554688 -17.691406 7.328125 -17.867188 8.109375 -17.984375 C 8.828125 -18.085938 9.566406 -18.144531 10.328125 -18.15625 C 11.097656 -18.175781 11.851562 -18.113281 12.59375 -17.96875 C 13.34375 -17.832031 14.0625 -17.609375 14.75 -17.296875 C 15.4375 -16.992188 16.0625 -16.5625 16.625 -16 C 17.1875 -15.445312 17.660156 -14.757812 18.046875 -13.9375 C 18.441406 -13.113281 18.722656 -12.113281 18.890625 -10.9375 C 19.054688 -9.726562 19.070312 -8.65625 18.9375 -7.71875 C 18.800781 -6.78125 18.539062 -5.957031 18.15625 -5.25 C 17.769531 -4.539062 17.289062 -3.9375 16.71875 -3.4375 C 16.15625 -2.9375 15.53125 -2.515625 14.84375 -2.171875 C 14.164062 -1.835938 13.457031 -1.570312 12.71875 -1.375 C 11.976562 -1.175781 11.242188 -1.023438 10.515625 -0.921875 Z M 14.765625 -5.34375 C 15.085938 -5.382812 15.394531 -5.5 15.6875 -5.6875 C 15.988281 -5.875 16.238281 -6.164062 16.4375 -6.5625 C 16.632812 -6.957031 16.757812 -7.484375 16.8125 -8.140625 C 16.875 -8.804688 16.835938 -9.632812 16.703125 -10.625 C 16.566406 -11.550781 16.378906 -12.304688 16.140625 -12.890625 C 15.910156 -13.472656 15.644531 -13.921875 15.34375 -14.234375 C 15.050781 -14.546875 14.738281 -14.742188 14.40625 -14.828125 C 14.070312 -14.921875 13.742188 -14.945312 13.421875 -14.90625 C 13.179688 -14.875 12.914062 -14.785156 12.625 -14.640625 C 12.332031 -14.492188 12.078125 -14.226562 11.859375 -13.84375 C 11.640625 -13.46875 11.484375 -12.953125 11.390625 -12.296875 C 11.304688 -11.648438 11.335938 -10.804688 11.484375 -9.765625 C 11.628906 -8.710938 11.816406 -7.878906 12.046875 -7.265625 C 12.285156 -6.648438 12.546875 -6.191406 12.828125 -5.890625 C 13.109375 -5.597656 13.414062 -5.421875 13.75 -5.359375 C 14.09375 -5.304688 14.429688 -5.300781 14.765625 -5.34375 Z M 14.765625 -5.34375 "/></g></g></g><g fill="#fece0b" fill-opacity="0.502"><g transform="translate(47.157165, 36.11482)"><g><path d="M -0.21875 -23.640625 C -0.238281 -23.992188 -0.226562 -24.3125 -0.1875 -24.59375 C -0.144531 -24.875 -0.0390625 -25.109375 0.125 -25.296875 C 0.289062 -25.492188 0.523438 -25.648438 0.828125 -25.765625 C 1.140625 -25.878906 1.546875 -25.957031 2.046875 -26 L 8.921875 -26.484375 C 9.398438 -26.515625 9.789062 -26.492188 10.09375 -26.421875 C 10.394531 -26.347656 10.632812 -26.226562 10.8125 -26.0625 C 10.988281 -25.894531 11.113281 -25.671875 11.1875 -25.390625 C 11.269531 -25.117188 11.320312 -24.804688 11.34375 -24.453125 L 12.15625 -13.125 L 15.65625 -17.109375 C 15.757812 -17.242188 15.859375 -17.335938 15.953125 -17.390625 C 16.054688 -17.441406 16.148438 -17.472656 16.234375 -17.484375 C 16.421875 -17.492188 16.59375 -17.421875 16.75 -17.265625 L 17.59375 -16.53125 C 17.71875 -16.394531 17.785156 -16.265625 17.796875 -16.140625 C 17.804688 -16.023438 17.773438 -15.90625 17.703125 -15.78125 C 17.628906 -15.664062 17.507812 -15.535156 17.34375 -15.390625 L 12.6875 -11.40625 C 13.5625 -11.4375 14.300781 -11.375 14.90625 -11.21875 C 15.507812 -11.070312 16.003906 -10.828125 16.390625 -10.484375 C 16.785156 -10.148438 17.082031 -9.710938 17.28125 -9.171875 C 17.488281 -8.640625 17.617188 -8.015625 17.671875 -7.296875 L 18.046875 -2.015625 C 18.054688 -1.835938 18.039062 -1.695312 18 -1.59375 C 17.957031 -1.488281 17.90625 -1.410156 17.84375 -1.359375 C 17.78125 -1.304688 17.703125 -1.269531 17.609375 -1.25 C 17.515625 -1.238281 17.421875 -1.226562 17.328125 -1.21875 L 16.328125 -1.15625 C 16.046875 -1.132812 15.859375 -1.195312 15.765625 -1.34375 C 15.679688 -1.5 15.632812 -1.664062 15.625 -1.84375 L 15.234375 -7.28125 C 15.203125 -7.757812 15.128906 -8.15625 15.015625 -8.46875 C 14.910156 -8.789062 14.75 -9.039062 14.53125 -9.21875 C 14.3125 -9.394531 14.023438 -9.515625 13.671875 -9.578125 C 13.328125 -9.640625 12.898438 -9.664062 12.390625 -9.65625 L 12.859375 -3.078125 C 12.890625 -2.722656 12.878906 -2.40625 12.828125 -2.125 C 12.773438 -1.851562 12.660156 -1.617188 12.484375 -1.421875 C 12.316406 -1.222656 12.066406 -1.066406 11.734375 -0.953125 C 11.398438 -0.847656 10.972656 -0.773438 10.453125 -0.734375 L 3.859375 -0.28125 C 3.359375 -0.238281 2.945312 -0.253906 2.625 -0.328125 C 2.3125 -0.398438 2.054688 -0.515625 1.859375 -0.671875 C 1.671875 -0.835938 1.535156 -1.054688 1.453125 -1.328125 C 1.378906 -1.609375 1.328125 -1.929688 1.296875 -2.296875 Z M -0.21875 -23.640625 "/></g></g></g><g fill="#fece0b" fill-opacity="0.502"><g transform="translate(65.453927, 34.76677)"><g><path d="M 15.703125 -2.640625 C 15.992188 -2.640625 16.253906 -2.675781 16.484375 -2.75 C 16.710938 -2.832031 16.914062 -2.921875 17.09375 -3.015625 C 17.28125 -3.109375 17.429688 -3.195312 17.546875 -3.28125 C 17.671875 -3.375 17.765625 -3.421875 17.828125 -3.421875 C 17.921875 -3.421875 17.984375 -3.40625 18.015625 -3.375 C 18.054688 -3.34375 18.101562 -3.28125 18.15625 -3.1875 L 18.71875 -2.34375 C 18.769531 -2.257812 18.796875 -2.1875 18.796875 -2.125 C 18.796875 -2.050781 18.773438 -1.992188 18.734375 -1.953125 C 18.691406 -1.910156 18.648438 -1.875 18.609375 -1.84375 C 18.253906 -1.601562 17.828125 -1.335938 17.328125 -1.046875 C 16.828125 -0.765625 16.242188 -0.507812 15.578125 -0.28125 C 14.910156 -0.0507812 14.15625 0.132812 13.3125 0.28125 C 12.476562 0.4375 11.554688 0.519531 10.546875 0.53125 C 9.753906 0.53125 8.960938 0.46875 8.171875 0.34375 C 7.390625 0.21875 6.640625 0.0195312 5.921875 -0.25 C 5.203125 -0.519531 4.53125 -0.875 3.90625 -1.3125 C 3.289062 -1.75 2.753906 -2.285156 2.296875 -2.921875 C 1.835938 -3.566406 1.472656 -4.3125 1.203125 -5.15625 C 0.941406 -6 0.8125 -6.96875 0.8125 -8.0625 C 0.8125 -9.125 0.941406 -10.078125 1.203125 -10.921875 C 1.460938 -11.773438 1.816406 -12.519531 2.265625 -13.15625 C 2.722656 -13.800781 3.257812 -14.347656 3.875 -14.796875 C 4.5 -15.242188 5.171875 -15.609375 5.890625 -15.890625 C 6.609375 -16.171875 7.359375 -16.375 8.140625 -16.5 C 8.929688 -16.625 9.722656 -16.6875 10.515625 -16.6875 C 11.828125 -16.695312 13.046875 -16.550781 14.171875 -16.25 C 15.296875 -15.957031 16.273438 -15.476562 17.109375 -14.8125 C 17.941406 -14.144531 18.59375 -13.265625 19.0625 -12.171875 C 19.539062 -11.085938 19.78125 -9.753906 19.78125 -8.171875 L 19.78125 -7.28125 C 19.78125 -7.09375 19.734375 -6.945312 19.640625 -6.84375 C 19.546875 -6.738281 19.390625 -6.6875 19.171875 -6.6875 L 12.65625 -6.671875 C 12.738281 -5.898438 12.882812 -5.253906 13.09375 -4.734375 C 13.3125 -4.210938 13.5625 -3.796875 13.84375 -3.484375 C 14.132812 -3.171875 14.441406 -2.953125 14.765625 -2.828125 C 15.085938 -2.703125 15.398438 -2.640625 15.703125 -2.640625 Z M 17.546875 -8.609375 C 17.546875 -9.453125 17.476562 -10.144531 17.34375 -10.6875 C 17.207031 -11.238281 17.03125 -11.679688 16.8125 -12.015625 C 16.59375 -12.347656 16.332031 -12.582031 16.03125 -12.71875 C 15.726562 -12.851562 15.414062 -12.921875 15.09375 -12.921875 C 14.851562 -12.921875 14.585938 -12.875 14.296875 -12.78125 C 14.015625 -12.6875 13.75 -12.484375 13.5 -12.171875 C 13.257812 -11.867188 13.054688 -11.4375 12.890625 -10.875 C 12.722656 -10.3125 12.625 -9.554688 12.59375 -8.609375 Z M 8.78125 -18.359375 C 8.738281 -18.335938 8.703125 -18.3125 8.671875 -18.28125 C 8.640625 -18.257812 8.609375 -18.25 8.578125 -18.25 C 8.460938 -18.25 8.375 -18.304688 8.3125 -18.421875 L 7.265625 -19.953125 C 7.203125 -20.023438 7.171875 -20.097656 7.171875 -20.171875 C 7.171875 -20.242188 7.21875 -20.320312 7.3125 -20.40625 L 12.875 -24.640625 C 12.945312 -24.703125 13.019531 -24.734375 13.09375 -24.734375 C 13.164062 -24.734375 13.242188 -24.6875 13.328125 -24.59375 L 14.78125 -22.546875 C 14.851562 -22.460938 14.890625 -22.382812 14.890625 -22.3125 C 14.890625 -22.21875 14.84375 -22.140625 14.75 -22.078125 Z M 8.78125 -18.359375 "/></g></g></g><g fill="#fece0b" fill-opacity="0.502"><g transform="translate(85.246638, 34.690778)"><g><path d="M 19.421875 -0.859375 C 19.390625 -0.492188 19.332031 -0.175781 19.25 0.09375 C 19.175781 0.363281 19.039062 0.582031 18.84375 0.75 C 18.65625 0.914062 18.398438 1.035156 18.078125 1.109375 C 17.753906 1.179688 17.34375 1.203125 16.84375 1.171875 L 9.984375 0.6875 C 9.222656 0.613281 8.472656 0.488281 7.734375 0.3125 C 6.992188 0.144531 6.289062 -0.0859375 5.625 -0.390625 C 4.96875 -0.703125 4.363281 -1.082031 3.8125 -1.53125 C 3.269531 -1.988281 2.804688 -2.523438 2.421875 -3.140625 C 2.035156 -3.753906 1.75 -4.46875 1.5625 -5.28125 C 1.375 -6.101562 1.316406 -7.035156 1.390625 -8.078125 C 1.484375 -9.359375 1.742188 -10.445312 2.171875 -11.34375 C 2.609375 -12.25 3.160156 -12.992188 3.828125 -13.578125 C 4.492188 -14.171875 5.253906 -14.617188 6.109375 -14.921875 C 6.972656 -15.234375 7.875 -15.445312 8.8125 -15.5625 L 9.328125 -22.984375 C 9.347656 -23.347656 9.394531 -23.664062 9.46875 -23.9375 C 9.539062 -24.21875 9.664062 -24.441406 9.84375 -24.609375 C 10.03125 -24.785156 10.269531 -24.90625 10.5625 -24.96875 C 10.863281 -25.039062 11.257812 -25.0625 11.75 -25.03125 L 18.625 -24.546875 C 19.125 -24.515625 19.523438 -24.441406 19.828125 -24.328125 C 20.140625 -24.210938 20.378906 -24.0625 20.546875 -23.875 C 20.710938 -23.6875 20.816406 -23.445312 20.859375 -23.15625 C 20.898438 -22.875 20.910156 -22.554688 20.890625 -22.203125 Z M 3.625 -7.90625 C 3.570312 -7.125 3.609375 -6.390625 3.734375 -5.703125 C 3.867188 -5.015625 4.101562 -4.398438 4.4375 -3.859375 C 4.769531 -3.316406 5.21875 -2.859375 5.78125 -2.484375 C 6.34375 -2.109375 7.035156 -1.847656 7.859375 -1.703125 L 8.671875 -13.546875 C 7.847656 -13.492188 7.128906 -13.316406 6.515625 -13.015625 C 5.898438 -12.722656 5.390625 -12.328125 4.984375 -11.828125 C 4.578125 -11.328125 4.257812 -10.742188 4.03125 -10.078125 C 3.8125 -9.410156 3.675781 -8.6875 3.625 -7.90625 Z M 3.625 -7.90625 "/></g></g></g><g fill="#fece0b" fill-opacity="0.502"><g transform="translate(105.119763, 36.035486)"><g><path d="M 15.90625 -0.390625 C 16.195312 -0.347656 16.457031 -0.347656 16.6875 -0.390625 C 16.925781 -0.441406 17.144531 -0.5 17.34375 -0.5625 C 17.539062 -0.632812 17.703125 -0.703125 17.828125 -0.765625 C 17.960938 -0.828125 18.0625 -0.859375 18.125 -0.859375 C 18.21875 -0.835938 18.28125 -0.804688 18.3125 -0.765625 C 18.34375 -0.734375 18.378906 -0.671875 18.421875 -0.578125 L 18.859375 0.328125 C 18.890625 0.421875 18.90625 0.5 18.90625 0.5625 C 18.894531 0.632812 18.863281 0.6875 18.8125 0.71875 C 18.757812 0.757812 18.710938 0.789062 18.671875 0.8125 C 18.296875 1.007812 17.835938 1.207031 17.296875 1.40625 C 16.765625 1.613281 16.148438 1.785156 15.453125 1.921875 C 14.765625 2.054688 13.992188 2.140625 13.140625 2.171875 C 12.285156 2.210938 11.359375 2.160156 10.359375 2.015625 C 9.578125 1.910156 8.804688 1.738281 8.046875 1.5 C 7.285156 1.269531 6.566406 0.96875 5.890625 0.59375 C 5.222656 0.21875 4.613281 -0.226562 4.0625 -0.75 C 3.507812 -1.269531 3.050781 -1.878906 2.6875 -2.578125 C 2.332031 -3.273438 2.078125 -4.0625 1.921875 -4.9375 C 1.773438 -5.8125 1.78125 -6.789062 1.9375 -7.875 C 2.082031 -8.925781 2.347656 -9.847656 2.734375 -10.640625 C 3.117188 -11.441406 3.578125 -12.128906 4.109375 -12.703125 C 4.648438 -13.273438 5.257812 -13.738281 5.9375 -14.09375 C 6.613281 -14.445312 7.328125 -14.710938 8.078125 -14.890625 C 8.835938 -15.066406 9.613281 -15.160156 10.40625 -15.171875 C 11.195312 -15.191406 11.984375 -15.148438 12.765625 -15.046875 C 14.066406 -14.859375 15.253906 -14.535156 16.328125 -14.078125 C 17.398438 -13.628906 18.300781 -13.015625 19.03125 -12.234375 C 19.757812 -11.453125 20.28125 -10.488281 20.59375 -9.34375 C 20.914062 -8.195312 20.96875 -6.84375 20.75 -5.28125 L 20.625 -4.390625 C 20.59375 -4.210938 20.519531 -4.078125 20.40625 -3.984375 C 20.300781 -3.898438 20.140625 -3.867188 19.921875 -3.890625 L 13.46875 -4.8125 C 13.445312 -4.039062 13.503906 -3.378906 13.640625 -2.828125 C 13.785156 -2.285156 13.972656 -1.835938 14.203125 -1.484375 C 14.441406 -1.128906 14.707031 -0.867188 15 -0.703125 C 15.300781 -0.535156 15.601562 -0.429688 15.90625 -0.390625 Z M 18.59375 -6.046875 C 18.707031 -6.878906 18.738281 -7.570312 18.6875 -8.125 C 18.632812 -8.6875 18.523438 -9.144531 18.359375 -9.5 C 18.191406 -9.863281 17.960938 -10.132812 17.671875 -10.3125 C 17.390625 -10.488281 17.09375 -10.601562 16.78125 -10.65625 C 16.539062 -10.6875 16.269531 -10.675781 15.96875 -10.625 C 15.675781 -10.570312 15.390625 -10.410156 15.109375 -10.140625 C 14.828125 -9.867188 14.554688 -9.46875 14.296875 -8.9375 C 14.046875 -8.40625 13.84375 -7.671875 13.6875 -6.734375 Z M 18.59375 -6.046875 "/></g></g></g><g fill="#fece0b" fill-opacity="0.502"><g transform="translate(124.727226, 38.775654)"><g><path d="M 7.09375 -3.578125 L 4.21875 -0.421875 C 4.09375 -0.273438 3.972656 -0.132812 3.859375 0 C 3.742188 0.144531 3.617188 0.257812 3.484375 0.34375 C 3.347656 0.425781 3.203125 0.488281 3.046875 0.53125 C 2.890625 0.582031 2.707031 0.582031 2.5 0.53125 L 0.734375 0.15625 C 0.578125 0.125 0.457031 0.0625 0.375 -0.03125 C 0.300781 -0.132812 0.28125 -0.257812 0.3125 -0.40625 C 0.332031 -0.5 0.375 -0.601562 0.4375 -0.71875 C 0.5 -0.832031 0.585938 -0.953125 0.703125 -1.078125 L 6.078125 -6.71875 L 3.59375 -14.390625 C 3.519531 -14.617188 3.5 -14.816406 3.53125 -14.984375 C 3.632812 -15.460938 3.992188 -15.632812 4.609375 -15.5 L 13.484375 -13.59375 C 13.992188 -13.488281 14.332031 -13.359375 14.5 -13.203125 C 14.675781 -13.046875 14.804688 -12.851562 14.890625 -12.625 L 16.140625 -8.828125 L 18.34375 -11.234375 C 18.46875 -11.378906 18.585938 -11.519531 18.703125 -11.65625 C 18.816406 -11.789062 18.941406 -11.898438 19.078125 -11.984375 C 19.222656 -12.066406 19.375 -12.128906 19.53125 -12.171875 C 19.6875 -12.222656 19.867188 -12.226562 20.078125 -12.1875 L 21.828125 -11.8125 C 21.992188 -11.78125 22.113281 -11.710938 22.1875 -11.609375 C 22.269531 -11.503906 22.296875 -11.378906 22.265625 -11.234375 C 22.210938 -11.023438 22.082031 -10.804688 21.875 -10.578125 L 17.1875 -5.671875 L 19.953125 2.734375 C 20.003906 2.890625 20.046875 3.035156 20.078125 3.171875 C 20.109375 3.316406 20.113281 3.445312 20.09375 3.5625 C 20.050781 3.738281 19.988281 3.867188 19.90625 3.953125 C 19.820312 4.035156 19.722656 4.085938 19.609375 4.109375 C 19.503906 4.140625 19.390625 4.144531 19.265625 4.125 C 19.148438 4.101562 19.035156 4.078125 18.921875 4.046875 L 9.890625 2.109375 C 9.628906 2.054688 9.414062 1.976562 9.25 1.875 C 9.082031 1.769531 8.945312 1.660156 8.84375 1.546875 C 8.75 1.429688 8.679688 1.3125 8.640625 1.1875 C 8.597656 1.070312 8.5625 0.96875 8.53125 0.875 Z M 7.09375 -3.578125 "/></g></g></g><g fill="#fece0b" fill-opacity="0.302"><g transform="translate(9.304035, 44.036576)"><g><path d="M -2.84375 -20.234375 C -2.925781 -20.597656 -2.960938 -20.921875 -2.953125 -21.203125 C -2.953125 -21.484375 -2.882812 -21.726562 -2.75 -21.9375 C -2.613281 -22.15625 -2.398438 -22.347656 -2.109375 -22.515625 C -1.828125 -22.679688 -1.441406 -22.816406 -0.953125 -22.921875 L 5.921875 -24.390625 C 6.628906 -24.546875 7.34375 -24.648438 8.0625 -24.703125 C 8.78125 -24.753906 9.476562 -24.75 10.15625 -24.6875 C 10.832031 -24.625 11.476562 -24.488281 12.09375 -24.28125 C 12.71875 -24.070312 13.285156 -23.765625 13.796875 -23.359375 C 14.304688 -22.960938 14.742188 -22.460938 15.109375 -21.859375 C 15.484375 -21.253906 15.765625 -20.519531 15.953125 -19.65625 C 16.222656 -18.394531 16.273438 -17.296875 16.109375 -16.359375 C 15.953125 -15.421875 15.644531 -14.601562 15.1875 -13.90625 C 14.726562 -13.21875 14.140625 -12.644531 13.421875 -12.1875 C 12.710938 -11.726562 11.945312 -11.34375 11.125 -11.03125 L 12.359375 -5.25 C 12.410156 -5.019531 12.441406 -4.753906 12.453125 -4.453125 C 12.472656 -4.160156 12.429688 -3.867188 12.328125 -3.578125 C 12.222656 -3.285156 12.019531 -3.015625 11.71875 -2.765625 C 11.414062 -2.523438 10.96875 -2.34375 10.375 -2.21875 L 3.78125 -0.8125 C 3.289062 -0.707031 2.878906 -0.664062 2.546875 -0.6875 C 2.222656 -0.71875 1.957031 -0.800781 1.75 -0.9375 C 1.539062 -1.070312 1.375 -1.265625 1.25 -1.515625 C 1.132812 -1.773438 1.039062 -2.082031 0.96875 -2.4375 Z M 13.828125 -18.984375 C 13.691406 -19.597656 13.488281 -20.144531 13.21875 -20.625 C 12.945312 -21.101562 12.597656 -21.5 12.171875 -21.8125 C 11.742188 -22.132812 11.238281 -22.363281 10.65625 -22.5 C 10.070312 -22.644531 9.398438 -22.6875 8.640625 -22.625 L 10.6875 -13.078125 C 11.40625 -13.347656 11.992188 -13.6875 12.453125 -14.09375 C 12.921875 -14.5 13.28125 -14.960938 13.53125 -15.484375 C 13.78125 -16.003906 13.925781 -16.5625 13.96875 -17.15625 C 14.007812 -17.75 13.960938 -18.359375 13.828125 -18.984375 Z M 13.828125 -18.984375 "/></g></g></g><g fill="#fece0b" fill-opacity="0.302"><g transform="translate(28.386348, 39.903261)"><g><path d="M 10.515625 -0.921875 C 9.734375 -0.804688 8.945312 -0.753906 8.15625 -0.765625 C 7.363281 -0.785156 6.585938 -0.878906 5.828125 -1.046875 C 5.078125 -1.222656 4.363281 -1.488281 3.6875 -1.84375 C 3.007812 -2.195312 2.398438 -2.65625 1.859375 -3.21875 C 1.328125 -3.789062 0.867188 -4.472656 0.484375 -5.265625 C 0.109375 -6.066406 -0.15625 -7.007812 -0.3125 -8.09375 C -0.457031 -9.144531 -0.457031 -10.109375 -0.3125 -10.984375 C -0.164062 -11.859375 0.0820312 -12.644531 0.4375 -13.34375 C 0.800781 -14.050781 1.257812 -14.664062 1.8125 -15.1875 C 2.363281 -15.707031 2.976562 -16.15625 3.65625 -16.53125 C 4.332031 -16.914062 5.046875 -17.222656 5.796875 -17.453125 C 6.554688 -17.691406 7.328125 -17.867188 8.109375 -17.984375 C 8.828125 -18.085938 9.566406 -18.144531 10.328125 -18.15625 C 11.097656 -18.175781 11.851562 -18.113281 12.59375 -17.96875 C 13.34375 -17.832031 14.0625 -17.609375 14.75 -17.296875 C 15.4375 -16.992188 16.0625 -16.5625 16.625 -16 C 17.1875 -15.445312 17.660156 -14.757812 18.046875 -13.9375 C 18.441406 -13.113281 18.722656 -12.113281 18.890625 -10.9375 C 19.054688 -9.726562 19.070312 -8.65625 18.9375 -7.71875 C 18.800781 -6.78125 18.539062 -5.957031 18.15625 -5.25 C 17.769531 -4.539062 17.289062 -3.9375 16.71875 -3.4375 C 16.15625 -2.9375 15.53125 -2.515625 14.84375 -2.171875 C 14.164062 -1.835938 13.457031 -1.570312 12.71875 -1.375 C 11.976562 -1.175781 11.242188 -1.023438 10.515625 -0.921875 Z M 14.765625 -5.34375 C 15.085938 -5.382812 15.394531 -5.5 15.6875 -5.6875 C 15.988281 -5.875 16.238281 -6.164062 16.4375 -6.5625 C 16.632812 -6.957031 16.757812 -7.484375 16.8125 -8.140625 C 16.875 -8.804688 16.835938 -9.632812 16.703125 -10.625 C 16.566406 -11.550781 16.378906 -12.304688 16.140625 -12.890625 C 15.910156 -13.472656 15.644531 -13.921875 15.34375 -14.234375 C 15.050781 -14.546875 14.738281 -14.742188 14.40625 -14.828125 C 14.070312 -14.921875 13.742188 -14.945312 13.421875 -14.90625 C 13.179688 -14.875 12.914062 -14.785156 12.625 -14.640625 C 12.332031 -14.492188 12.078125 -14.226562 11.859375 -13.84375 C 11.640625 -13.46875 11.484375 -12.953125 11.390625 -12.296875 C 11.304688 -11.648438 11.335938 -10.804688 11.484375 -9.765625 C 11.628906 -8.710938 11.816406 -7.878906 12.046875 -7.265625 C 12.285156 -6.648438 12.546875 -6.191406 12.828125 -5.890625 C 13.109375 -5.597656 13.414062 -5.421875 13.75 -5.359375 C 14.09375 -5.304688 14.429688 -5.300781 14.765625 -5.34375 Z M 14.765625 -5.34375 "/></g></g></g><g fill="#fece0b" fill-opacity="0.302"><g transform="translate(48.444453, 37.08486)"><g><path d="M -0.21875 -23.640625 C -0.238281 -23.992188 -0.226562 -24.3125 -0.1875 -24.59375 C -0.144531 -24.875 -0.0390625 -25.109375 0.125 -25.296875 C 0.289062 -25.492188 0.523438 -25.648438 0.828125 -25.765625 C 1.140625 -25.878906 1.546875 -25.957031 2.046875 -26 L 8.921875 -26.484375 C 9.398438 -26.515625 9.789062 -26.492188 10.09375 -26.421875 C 10.394531 -26.347656 10.632812 -26.226562 10.8125 -26.0625 C 10.988281 -25.894531 11.113281 -25.671875 11.1875 -25.390625 C 11.269531 -25.117188 11.320312 -24.804688 11.34375 -24.453125 L 12.15625 -13.125 L 15.65625 -17.109375 C 15.757812 -17.242188 15.859375 -17.335938 15.953125 -17.390625 C 16.054688 -17.441406 16.148438 -17.472656 16.234375 -17.484375 C 16.421875 -17.492188 16.59375 -17.421875 16.75 -17.265625 L 17.59375 -16.53125 C 17.71875 -16.394531 17.785156 -16.265625 17.796875 -16.140625 C 17.804688 -16.023438 17.773438 -15.90625 17.703125 -15.78125 C 17.628906 -15.664062 17.507812 -15.535156 17.34375 -15.390625 L 12.6875 -11.40625 C 13.5625 -11.4375 14.300781 -11.375 14.90625 -11.21875 C 15.507812 -11.070312 16.003906 -10.828125 16.390625 -10.484375 C 16.785156 -10.148438 17.082031 -9.710938 17.28125 -9.171875 C 17.488281 -8.640625 17.617188 -8.015625 17.671875 -7.296875 L 18.046875 -2.015625 C 18.054688 -1.835938 18.039062 -1.695312 18 -1.59375 C 17.957031 -1.488281 17.90625 -1.410156 17.84375 -1.359375 C 17.78125 -1.304688 17.703125 -1.269531 17.609375 -1.25 C 17.515625 -1.238281 17.421875 -1.226562 17.328125 -1.21875 L 16.328125 -1.15625 C 16.046875 -1.132812 15.859375 -1.195312 15.765625 -1.34375 C 15.679688 -1.5 15.632812 -1.664062 15.625 -1.84375 L 15.234375 -7.28125 C 15.203125 -7.757812 15.128906 -8.15625 15.015625 -8.46875 C 14.910156 -8.789062 14.75 -9.039062 14.53125 -9.21875 C 14.3125 -9.394531 14.023438 -9.515625 13.671875 -9.578125 C 13.328125 -9.640625 12.898438 -9.664062 12.390625 -9.65625 L 12.859375 -3.078125 C 12.890625 -2.722656 12.878906 -2.40625 12.828125 -2.125 C 12.773438 -1.851562 12.660156 -1.617188 12.484375 -1.421875 C 12.316406 -1.222656 12.066406 -1.066406 11.734375 -0.953125 C 11.398438 -0.847656 10.972656 -0.773438 10.453125 -0.734375 L 3.859375 -0.28125 C 3.359375 -0.238281 2.945312 -0.253906 2.625 -0.328125 C 2.3125 -0.398438 2.054688 -0.515625 1.859375 -0.671875 C 1.671875 -0.835938 1.535156 -1.054688 1.453125 -1.328125 C 1.378906 -1.609375 1.328125 -1.929688 1.296875 -2.296875 Z M -0.21875 -23.640625 "/></g></g></g><g fill="#fece0b" fill-opacity="0.302"><g transform="translate(66.741212, 35.736809)"><g><path d="M 15.703125 -2.640625 C 15.992188 -2.640625 16.253906 -2.675781 16.484375 -2.75 C 16.710938 -2.832031 16.914062 -2.921875 17.09375 -3.015625 C 17.28125 -3.109375 17.429688 -3.195312 17.546875 -3.28125 C 17.671875 -3.375 17.765625 -3.421875 17.828125 -3.421875 C 17.921875 -3.421875 17.984375 -3.40625 18.015625 -3.375 C 18.054688 -3.34375 18.101562 -3.28125 18.15625 -3.1875 L 18.71875 -2.34375 C 18.769531 -2.257812 18.796875 -2.1875 18.796875 -2.125 C 18.796875 -2.050781 18.773438 -1.992188 18.734375 -1.953125 C 18.691406 -1.910156 18.648438 -1.875 18.609375 -1.84375 C 18.253906 -1.601562 17.828125 -1.335938 17.328125 -1.046875 C 16.828125 -0.765625 16.242188 -0.507812 15.578125 -0.28125 C 14.910156 -0.0507812 14.15625 0.132812 13.3125 0.28125 C 12.476562 0.4375 11.554688 0.519531 10.546875 0.53125 C 9.753906 0.53125 8.960938 0.46875 8.171875 0.34375 C 7.390625 0.21875 6.640625 0.0195312 5.921875 -0.25 C 5.203125 -0.519531 4.53125 -0.875 3.90625 -1.3125 C 3.289062 -1.75 2.753906 -2.285156 2.296875 -2.921875 C 1.835938 -3.566406 1.472656 -4.3125 1.203125 -5.15625 C 0.941406 -6 0.8125 -6.96875 0.8125 -8.0625 C 0.8125 -9.125 0.941406 -10.078125 1.203125 -10.921875 C 1.460938 -11.773438 1.816406 -12.519531 2.265625 -13.15625 C 2.722656 -13.800781 3.257812 -14.347656 3.875 -14.796875 C 4.5 -15.242188 5.171875 -15.609375 5.890625 -15.890625 C 6.609375 -16.171875 7.359375 -16.375 8.140625 -16.5 C 8.929688 -16.625 9.722656 -16.6875 10.515625 -16.6875 C 11.828125 -16.695312 13.046875 -16.550781 14.171875 -16.25 C 15.296875 -15.957031 16.273438 -15.476562 17.109375 -14.8125 C 17.941406 -14.144531 18.59375 -13.265625 19.0625 -12.171875 C 19.539062 -11.085938 19.78125 -9.753906 19.78125 -8.171875 L 19.78125 -7.28125 C 19.78125 -7.09375 19.734375 -6.945312 19.640625 -6.84375 C 19.546875 -6.738281 19.390625 -6.6875 19.171875 -6.6875 L 12.65625 -6.671875 C 12.738281 -5.898438 12.882812 -5.253906 13.09375 -4.734375 C 13.3125 -4.210938 13.5625 -3.796875 13.84375 -3.484375 C 14.132812 -3.171875 14.441406 -2.953125 14.765625 -2.828125 C 15.085938 -2.703125 15.398438 -2.640625 15.703125 -2.640625 Z M 17.546875 -8.609375 C 17.546875 -9.453125 17.476562 -10.144531 17.34375 -10.6875 C 17.207031 -11.238281 17.03125 -11.679688 16.8125 -12.015625 C 16.59375 -12.347656 16.332031 -12.582031 16.03125 -12.71875 C 15.726562 -12.851562 15.414062 -12.921875 15.09375 -12.921875 C 14.851562 -12.921875 14.585938 -12.875 14.296875 -12.78125 C 14.015625 -12.6875 13.75 -12.484375 13.5 -12.171875 C 13.257812 -11.867188 13.054688 -11.4375 12.890625 -10.875 C 12.722656 -10.3125 12.625 -9.554688 12.59375 -8.609375 Z M 8.78125 -18.359375 C 8.738281 -18.335938 8.703125 -18.3125 8.671875 -18.28125 C 8.640625 -18.257812 8.609375 -18.25 8.578125 -18.25 C 8.460938 -18.25 8.375 -18.304688 8.3125 -18.421875 L 7.265625 -19.953125 C 7.203125 -20.023438 7.171875 -20.097656 7.171875 -20.171875 C 7.171875 -20.242188 7.21875 -20.320312 7.3125 -20.40625 L 12.875 -24.640625 C 12.945312 -24.703125 13.019531 -24.734375 13.09375 -24.734375 C 13.164062 -24.734375 13.242188 -24.6875 13.328125 -24.59375 L 14.78125 -22.546875 C 14.851562 -22.460938 14.890625 -22.382812 14.890625 -22.3125 C 14.890625 -22.21875 14.84375 -22.140625 14.75 -22.078125 Z M 8.78125 -18.359375 "/></g></g></g><g fill="#fece0b" fill-opacity="0.302"><g transform="translate(86.533928, 35.660817)"><g><path d="M 19.421875 -0.859375 C 19.390625 -0.492188 19.332031 -0.175781 19.25 0.09375 C 19.175781 0.363281 19.039062 0.582031 18.84375 0.75 C 18.65625 0.914062 18.398438 1.035156 18.078125 1.109375 C 17.753906 1.179688 17.34375 1.203125 16.84375 1.171875 L 9.984375 0.6875 C 9.222656 0.613281 8.472656 0.488281 7.734375 0.3125 C 6.992188 0.144531 6.289062 -0.0859375 5.625 -0.390625 C 4.96875 -0.703125 4.363281 -1.082031 3.8125 -1.53125 C 3.269531 -1.988281 2.804688 -2.523438 2.421875 -3.140625 C 2.035156 -3.753906 1.75 -4.46875 1.5625 -5.28125 C 1.375 -6.101562 1.316406 -7.035156 1.390625 -8.078125 C 1.484375 -9.359375 1.742188 -10.445312 2.171875 -11.34375 C 2.609375 -12.25 3.160156 -12.992188 3.828125 -13.578125 C 4.492188 -14.171875 5.253906 -14.617188 6.109375 -14.921875 C 6.972656 -15.234375 7.875 -15.445312 8.8125 -15.5625 L 9.328125 -22.984375 C 9.347656 -23.347656 9.394531 -23.664062 9.46875 -23.9375 C 9.539062 -24.21875 9.664062 -24.441406 9.84375 -24.609375 C 10.03125 -24.785156 10.269531 -24.90625 10.5625 -24.96875 C 10.863281 -25.039062 11.257812 -25.0625 11.75 -25.03125 L 18.625 -24.546875 C 19.125 -24.515625 19.523438 -24.441406 19.828125 -24.328125 C 20.140625 -24.210938 20.378906 -24.0625 20.546875 -23.875 C 20.710938 -23.6875 20.816406 -23.445312 20.859375 -23.15625 C 20.898438 -22.875 20.910156 -22.554688 20.890625 -22.203125 Z M 3.625 -7.90625 C 3.570312 -7.125 3.609375 -6.390625 3.734375 -5.703125 C 3.867188 -5.015625 4.101562 -4.398438 4.4375 -3.859375 C 4.769531 -3.316406 5.21875 -2.859375 5.78125 -2.484375 C 6.34375 -2.109375 7.035156 -1.847656 7.859375 -1.703125 L 8.671875 -13.546875 C 7.847656 -13.492188 7.128906 -13.316406 6.515625 -13.015625 C 5.898438 -12.722656 5.390625 -12.328125 4.984375 -11.828125 C 4.578125 -11.328125 4.257812 -10.742188 4.03125 -10.078125 C 3.8125 -9.410156 3.675781 -8.6875 3.625 -7.90625 Z M 3.625 -7.90625 "/></g></g></g><g fill="#fece0b" fill-opacity="0.302"><g transform="translate(106.407048, 37.005525)"><g><path d="M 15.90625 -0.390625 C 16.195312 -0.347656 16.457031 -0.347656 16.6875 -0.390625 C 16.925781 -0.441406 17.144531 -0.5 17.34375 -0.5625 C 17.539062 -0.632812 17.703125 -0.703125 17.828125 -0.765625 C 17.960938 -0.828125 18.0625 -0.859375 18.125 -0.859375 C 18.21875 -0.835938 18.28125 -0.804688 18.3125 -0.765625 C 18.34375 -0.734375 18.378906 -0.671875 18.421875 -0.578125 L 18.859375 0.328125 C 18.890625 0.421875 18.90625 0.5 18.90625 0.5625 C 18.894531 0.632812 18.863281 0.6875 18.8125 0.71875 C 18.757812 0.757812 18.710938 0.789062 18.671875 0.8125 C 18.296875 1.007812 17.835938 1.207031 17.296875 1.40625 C 16.765625 1.613281 16.148438 1.785156 15.453125 1.921875 C 14.765625 2.054688 13.992188 2.140625 13.140625 2.171875 C 12.285156 2.210938 11.359375 2.160156 10.359375 2.015625 C 9.578125 1.910156 8.804688 1.738281 8.046875 1.5 C 7.285156 1.269531 6.566406 0.96875 5.890625 0.59375 C 5.222656 0.21875 4.613281 -0.226562 4.0625 -0.75 C 3.507812 -1.269531 3.050781 -1.878906 2.6875 -2.578125 C 2.332031 -3.273438 2.078125 -4.0625 1.921875 -4.9375 C 1.773438 -5.8125 1.78125 -6.789062 1.9375 -7.875 C 2.082031 -8.925781 2.347656 -9.847656 2.734375 -10.640625 C 3.117188 -11.441406 3.578125 -12.128906 4.109375 -12.703125 C 4.648438 -13.273438 5.257812 -13.738281 5.9375 -14.09375 C 6.613281 -14.445312 7.328125 -14.710938 8.078125 -14.890625 C 8.835938 -15.066406 9.613281 -15.160156 10.40625 -15.171875 C 11.195312 -15.191406 11.984375 -15.148438 12.765625 -15.046875 C 14.066406 -14.859375 15.253906 -14.535156 16.328125 -14.078125 C 17.398438 -13.628906 18.300781 -13.015625 19.03125 -12.234375 C 19.757812 -11.453125 20.28125 -10.488281 20.59375 -9.34375 C 20.914062 -8.195312 20.96875 -6.84375 20.75 -5.28125 L 20.625 -4.390625 C 20.59375 -4.210938 20.519531 -4.078125 20.40625 -3.984375 C 20.300781 -3.898438 20.140625 -3.867188 19.921875 -3.890625 L 13.46875 -4.8125 C 13.445312 -4.039062 13.503906 -3.378906 13.640625 -2.828125 C 13.785156 -2.285156 13.972656 -1.835938 14.203125 -1.484375 C 14.441406 -1.128906 14.707031 -0.867188 15 -0.703125 C 15.300781 -0.535156 15.601562 -0.429688 15.90625 -0.390625 Z M 18.59375 -6.046875 C 18.707031 -6.878906 18.738281 -7.570312 18.6875 -8.125 C 18.632812 -8.6875 18.523438 -9.144531 18.359375 -9.5 C 18.191406 -9.863281 17.960938 -10.132812 17.671875 -10.3125 C 17.390625 -10.488281 17.09375 -10.601562 16.78125 -10.65625 C 16.539062 -10.6875 16.269531 -10.675781 15.96875 -10.625 C 15.675781 -10.570312 15.390625 -10.410156 15.109375 -10.140625 C 14.828125 -9.867188 14.554688 -9.46875 14.296875 -8.9375 C 14.046875 -8.40625 13.84375 -7.671875 13.6875 -6.734375 Z M 18.59375 -6.046875 "/></g></g></g><g clip-path="url(#c123128a99)"><g fill="#fece0b" fill-opacity="0.302"><g transform="translate(126.014515, 39.745693)"><g><path d="M 7.09375 -3.578125 L 4.21875 -0.421875 C 4.09375 -0.273438 3.972656 -0.132812 3.859375 0 C 3.742188 0.144531 3.617188 0.257812 3.484375 0.34375 C 3.347656 0.425781 3.203125 0.488281 3.046875 0.53125 C 2.890625 0.582031 2.707031 0.582031 2.5 0.53125 L 0.734375 0.15625 C 0.578125 0.125 0.457031 0.0625 0.375 -0.03125 C 0.300781 -0.132812 0.28125 -0.257812 0.3125 -0.40625 C 0.332031 -0.5 0.375 -0.601562 0.4375 -0.71875 C 0.5 -0.832031 0.585938 -0.953125 0.703125 -1.078125 L 6.078125 -6.71875 L 3.59375 -14.390625 C 3.519531 -14.617188 3.5 -14.816406 3.53125 -14.984375 C 3.632812 -15.460938 3.992188 -15.632812 4.609375 -15.5 L 13.484375 -13.59375 C 13.992188 -13.488281 14.332031 -13.359375 14.5 -13.203125 C 14.675781 -13.046875 14.804688 -12.851562 14.890625 -12.625 L 16.140625 -8.828125 L 18.34375 -11.234375 C 18.46875 -11.378906 18.585938 -11.519531 18.703125 -11.65625 C 18.816406 -11.789062 18.941406 -11.898438 19.078125 -11.984375 C 19.222656 -12.066406 19.375 -12.128906 19.53125 -12.171875 C 19.6875 -12.222656 19.867188 -12.226562 20.078125 -12.1875 L 21.828125 -11.8125 C 21.992188 -11.78125 22.113281 -11.710938 22.1875 -11.609375 C 22.269531 -11.503906 22.296875 -11.378906 22.265625 -11.234375 C 22.210938 -11.023438 22.082031 -10.804688 21.875 -10.578125 L 17.1875 -5.671875 L 19.953125 2.734375 C 20.003906 2.890625 20.046875 3.035156 20.078125 3.171875 C 20.109375 3.316406 20.113281 3.445312 20.09375 3.5625 C 20.050781 3.738281 19.988281 3.867188 19.90625 3.953125 C 19.820312 4.035156 19.722656 4.085938 19.609375 4.109375 C 19.503906 4.140625 19.390625 4.144531 19.265625 4.125 C 19.148438 4.101562 19.035156 4.078125 18.921875 4.046875 L 9.890625 2.109375 C 9.628906 2.054688 9.414062 1.976562 9.25 1.875 C 9.082031 1.769531 8.945312 1.660156 8.84375 1.546875 C 8.75 1.429688 8.679688 1.3125 8.640625 1.1875 C 8.597656 1.070312 8.5625 0.96875 8.53125 0.875 Z M 7.09375 -3.578125 "/></g></g></g></g><g fill="#7644ac" fill-opacity="1"><g transform="translate(6.729464, 42.096497)"><g><path d="M -2.84375 -20.234375 C -2.925781 -20.597656 -2.960938 -20.921875 -2.953125 -21.203125 C -2.953125 -21.484375 -2.882812 -21.726562 -2.75 -21.9375 C -2.613281 -22.15625 -2.398438 -22.347656 -2.109375 -22.515625 C -1.828125 -22.679688 -1.441406 -22.816406 -0.953125 -22.921875 L 5.921875 -24.390625 C 6.628906 -24.546875 7.34375 -24.648438 8.0625 -24.703125 C 8.78125 -24.753906 9.476562 -24.75 10.15625 -24.6875 C 10.832031 -24.625 11.476562 -24.488281 12.09375 -24.28125 C 12.71875 -24.070312 13.285156 -23.765625 13.796875 -23.359375 C 14.304688 -22.960938 14.742188 -22.460938 15.109375 -21.859375 C 15.484375 -21.253906 15.765625 -20.519531 15.953125 -19.65625 C 16.222656 -18.394531 16.273438 -17.296875 16.109375 -16.359375 C 15.953125 -15.421875 15.644531 -14.601562 15.1875 -13.90625 C 14.726562 -13.21875 14.140625 -12.644531 13.421875 -12.1875 C 12.710938 -11.726562 11.945312 -11.34375 11.125 -11.03125 L 12.359375 -5.25 C 12.410156 -5.019531 12.441406 -4.753906 12.453125 -4.453125 C 12.472656 -4.160156 12.429688 -3.867188 12.328125 -3.578125 C 12.222656 -3.285156 12.019531 -3.015625 11.71875 -2.765625 C 11.414062 -2.523438 10.96875 -2.34375 10.375 -2.21875 L 3.78125 -0.8125 C 3.289062 -0.707031 2.878906 -0.664062 2.546875 -0.6875 C 2.222656 -0.71875 1.957031 -0.800781 1.75 -0.9375 C 1.539062 -1.070312 1.375 -1.265625 1.25 -1.515625 C 1.132812 -1.773438 1.039062 -2.082031 0.96875 -2.4375 Z M 13.828125 -18.984375 C 13.691406 -19.597656 13.488281 -20.144531 13.21875 -20.625 C 12.945312 -21.101562 12.597656 -21.5 12.171875 -21.8125 C 11.742188 -22.132812 11.238281 -22.363281 10.65625 -22.5 C 10.070312 -22.644531 9.398438 -22.6875 8.640625 -22.625 L 10.6875 -13.078125 C 11.40625 -13.347656 11.992188 -13.6875 12.453125 -14.09375 C 12.921875 -14.5 13.28125 -14.960938 13.53125 -15.484375 C 13.78125 -16.003906 13.925781 -16.5625 13.96875 -17.15625 C 14.007812 -17.75 13.960938 -18.359375 13.828125 -18.984375 Z M 13.828125 -18.984375 "/></g></g></g><g fill="#7644ac" fill-opacity="1"><g transform="translate(25.811778, 37.963183)"><g><path d="M 10.515625 -0.921875 C 9.734375 -0.804688 8.945312 -0.753906 8.15625 -0.765625 C 7.363281 -0.785156 6.585938 -0.878906 5.828125 -1.046875 C 5.078125 -1.222656 4.363281 -1.488281 3.6875 -1.84375 C 3.007812 -2.195312 2.398438 -2.65625 1.859375 -3.21875 C 1.328125 -3.789062 0.867188 -4.472656 0.484375 -5.265625 C 0.109375 -6.066406 -0.15625 -7.007812 -0.3125 -8.09375 C -0.457031 -9.144531 -0.457031 -10.109375 -0.3125 -10.984375 C -0.164062 -11.859375 0.0820312 -12.644531 0.4375 -13.34375 C 0.800781 -14.050781 1.257812 -14.664062 1.8125 -15.1875 C 2.363281 -15.707031 2.976562 -16.15625 3.65625 -16.53125 C 4.332031 -16.914062 5.046875 -17.222656 5.796875 -17.453125 C 6.554688 -17.691406 7.328125 -17.867188 8.109375 -17.984375 C 8.828125 -18.085938 9.566406 -18.144531 10.328125 -18.15625 C 11.097656 -18.175781 11.851562 -18.113281 12.59375 -17.96875 C 13.34375 -17.832031 14.0625 -17.609375 14.75 -17.296875 C 15.4375 -16.992188 16.0625 -16.5625 16.625 -16 C 17.1875 -15.445312 17.660156 -14.757812 18.046875 -13.9375 C 18.441406 -13.113281 18.722656 -12.113281 18.890625 -10.9375 C 19.054688 -9.726562 19.070312 -8.65625 18.9375 -7.71875 C 18.800781 -6.78125 18.539062 -5.957031 18.15625 -5.25 C 17.769531 -4.539062 17.289062 -3.9375 16.71875 -3.4375 C 16.15625 -2.9375 15.53125 -2.515625 14.84375 -2.171875 C 14.164062 -1.835938 13.457031 -1.570312 12.71875 -1.375 C 11.976562 -1.175781 11.242188 -1.023438 10.515625 -0.921875 Z M 14.765625 -5.34375 C 15.085938 -5.382812 15.394531 -5.5 15.6875 -5.6875 C 15.988281 -5.875 16.238281 -6.164062 16.4375 -6.5625 C 16.632812 -6.957031 16.757812 -7.484375 16.8125 -8.140625 C 16.875 -8.804688 16.835938 -9.632812 16.703125 -10.625 C 16.566406 -11.550781 16.378906 -12.304688 16.140625 -12.890625 C 15.910156 -13.472656 15.644531 -13.921875 15.34375 -14.234375 C 15.050781 -14.546875 14.738281 -14.742188 14.40625 -14.828125 C 14.070312 -14.921875 13.742188 -14.945312 13.421875 -14.90625 C 13.179688 -14.875 12.914062 -14.785156 12.625 -14.640625 C 12.332031 -14.492188 12.078125 -14.226562 11.859375 -13.84375 C 11.640625 -13.46875 11.484375 -12.953125 11.390625 -12.296875 C 11.304688 -11.648438 11.335938 -10.804688 11.484375 -9.765625 C 11.628906 -8.710938 11.816406 -7.878906 12.046875 -7.265625 C 12.285156 -6.648438 12.546875 -6.191406 12.828125 -5.890625 C 13.109375 -5.597656 13.414062 -5.421875 13.75 -5.359375 C 14.09375 -5.304688 14.429688 -5.300781 14.765625 -5.34375 Z M 14.765625 -5.34375 "/></g></g></g><g fill="#7644ac" fill-opacity="1"><g transform="translate(45.869883, 35.144781)"><g><path d="M -0.21875 -23.640625 C -0.238281 -23.992188 -0.226562 -24.3125 -0.1875 -24.59375 C -0.144531 -24.875 -0.0390625 -25.109375 0.125 -25.296875 C 0.289062 -25.492188 0.523438 -25.648438 0.828125 -25.765625 C 1.140625 -25.878906 1.546875 -25.957031 2.046875 -26 L 8.921875 -26.484375 C 9.398438 -26.515625 9.789062 -26.492188 10.09375 -26.421875 C 10.394531 -26.347656 10.632812 -26.226562 10.8125 -26.0625 C 10.988281 -25.894531 11.113281 -25.671875 11.1875 -25.390625 C 11.269531 -25.117188 11.320312 -24.804688 11.34375 -24.453125 L 12.15625 -13.125 L 15.65625 -17.109375 C 15.757812 -17.242188 15.859375 -17.335938 15.953125 -17.390625 C 16.054688 -17.441406 16.148438 -17.472656 16.234375 -17.484375 C 16.421875 -17.492188 16.59375 -17.421875 16.75 -17.265625 L 17.59375 -16.53125 C 17.71875 -16.394531 17.785156 -16.265625 17.796875 -16.140625 C 17.804688 -16.023438 17.773438 -15.90625 17.703125 -15.78125 C 17.628906 -15.664062 17.507812 -15.535156 17.34375 -15.390625 L 12.6875 -11.40625 C 13.5625 -11.4375 14.300781 -11.375 14.90625 -11.21875 C 15.507812 -11.070312 16.003906 -10.828125 16.390625 -10.484375 C 16.785156 -10.148438 17.082031 -9.710938 17.28125 -9.171875 C 17.488281 -8.640625 17.617188 -8.015625 17.671875 -7.296875 L 18.046875 -2.015625 C 18.054688 -1.835938 18.039062 -1.695312 18 -1.59375 C 17.957031 -1.488281 17.90625 -1.410156 17.84375 -1.359375 C 17.78125 -1.304688 17.703125 -1.269531 17.609375 -1.25 C 17.515625 -1.238281 17.421875 -1.226562 17.328125 -1.21875 L 16.328125 -1.15625 C 16.046875 -1.132812 15.859375 -1.195312 15.765625 -1.34375 C 15.679688 -1.5 15.632812 -1.664062 15.625 -1.84375 L 15.234375 -7.28125 C 15.203125 -7.757812 15.128906 -8.15625 15.015625 -8.46875 C 14.910156 -8.789062 14.75 -9.039062 14.53125 -9.21875 C 14.3125 -9.394531 14.023438 -9.515625 13.671875 -9.578125 C 13.328125 -9.640625 12.898438 -9.664062 12.390625 -9.65625 L 12.859375 -3.078125 C 12.890625 -2.722656 12.878906 -2.40625 12.828125 -2.125 C 12.773438 -1.851562 12.660156 -1.617188 12.484375 -1.421875 C 12.316406 -1.222656 12.066406 -1.066406 11.734375 -0.953125 C 11.398438 -0.847656 10.972656 -0.773438 10.453125 -0.734375 L 3.859375 -0.28125 C 3.359375 -0.238281 2.945312 -0.253906 2.625 -0.328125 C 2.3125 -0.398438 2.054688 -0.515625 1.859375 -0.671875 C 1.671875 -0.835938 1.535156 -1.054688 1.453125 -1.328125 C 1.378906 -1.609375 1.328125 -1.929688 1.296875 -2.296875 Z M -0.21875 -23.640625 "/></g></g></g><g fill="#7644ac" fill-opacity="1"><g transform="translate(64.166645, 33.79673)"><g><path d="M 15.703125 -2.640625 C 15.992188 -2.640625 16.253906 -2.675781 16.484375 -2.75 C 16.710938 -2.832031 16.914062 -2.921875 17.09375 -3.015625 C 17.28125 -3.109375 17.429688 -3.195312 17.546875 -3.28125 C 17.671875 -3.375 17.765625 -3.421875 17.828125 -3.421875 C 17.921875 -3.421875 17.984375 -3.40625 18.015625 -3.375 C 18.054688 -3.34375 18.101562 -3.28125 18.15625 -3.1875 L 18.71875 -2.34375 C 18.769531 -2.257812 18.796875 -2.1875 18.796875 -2.125 C 18.796875 -2.050781 18.773438 -1.992188 18.734375 -1.953125 C 18.691406 -1.910156 18.648438 -1.875 18.609375 -1.84375 C 18.253906 -1.601562 17.828125 -1.335938 17.328125 -1.046875 C 16.828125 -0.765625 16.242188 -0.507812 15.578125 -0.28125 C 14.910156 -0.0507812 14.15625 0.132812 13.3125 0.28125 C 12.476562 0.4375 11.554688 0.519531 10.546875 0.53125 C 9.753906 0.53125 8.960938 0.46875 8.171875 0.34375 C 7.390625 0.21875 6.640625 0.0195312 5.921875 -0.25 C 5.203125 -0.519531 4.53125 -0.875 3.90625 -1.3125 C 3.289062 -1.75 2.753906 -2.285156 2.296875 -2.921875 C 1.835938 -3.566406 1.472656 -4.3125 1.203125 -5.15625 C 0.941406 -6 0.8125 -6.96875 0.8125 -8.0625 C 0.8125 -9.125 0.941406 -10.078125 1.203125 -10.921875 C 1.460938 -11.773438 1.816406 -12.519531 2.265625 -13.15625 C 2.722656 -13.800781 3.257812 -14.347656 3.875 -14.796875 C 4.5 -15.242188 5.171875 -15.609375 5.890625 -15.890625 C 6.609375 -16.171875 7.359375 -16.375 8.140625 -16.5 C 8.929688 -16.625 9.722656 -16.6875 10.515625 -16.6875 C 11.828125 -16.695312 13.046875 -16.550781 14.171875 -16.25 C 15.296875 -15.957031 16.273438 -15.476562 17.109375 -14.8125 C 17.941406 -14.144531 18.59375 -13.265625 19.0625 -12.171875 C 19.539062 -11.085938 19.78125 -9.753906 19.78125 -8.171875 L 19.78125 -7.28125 C 19.78125 -7.09375 19.734375 -6.945312 19.640625 -6.84375 C 19.546875 -6.738281 19.390625 -6.6875 19.171875 -6.6875 L 12.65625 -6.671875 C 12.738281 -5.898438 12.882812 -5.253906 13.09375 -4.734375 C 13.3125 -4.210938 13.5625 -3.796875 13.84375 -3.484375 C 14.132812 -3.171875 14.441406 -2.953125 14.765625 -2.828125 C 15.085938 -2.703125 15.398438 -2.640625 15.703125 -2.640625 Z M 17.546875 -8.609375 C 17.546875 -9.453125 17.476562 -10.144531 17.34375 -10.6875 C 17.207031 -11.238281 17.03125 -11.679688 16.8125 -12.015625 C 16.59375 -12.347656 16.332031 -12.582031 16.03125 -12.71875 C 15.726562 -12.851562 15.414062 -12.921875 15.09375 -12.921875 C 14.851562 -12.921875 14.585938 -12.875 14.296875 -12.78125 C 14.015625 -12.6875 13.75 -12.484375 13.5 -12.171875 C 13.257812 -11.867188 13.054688 -11.4375 12.890625 -10.875 C 12.722656 -10.3125 12.625 -9.554688 12.59375 -8.609375 Z M 8.78125 -18.359375 C 8.738281 -18.335938 8.703125 -18.3125 8.671875 -18.28125 C 8.640625 -18.257812 8.609375 -18.25 8.578125 -18.25 C 8.460938 -18.25 8.375 -18.304688 8.3125 -18.421875 L 7.265625 -19.953125 C 7.203125 -20.023438 7.171875 -20.097656 7.171875 -20.171875 C 7.171875 -20.242188 7.21875 -20.320312 7.3125 -20.40625 L 12.875 -24.640625 C 12.945312 -24.703125 13.019531 -24.734375 13.09375 -24.734375 C 13.164062 -24.734375 13.242188 -24.6875 13.328125 -24.59375 L 14.78125 -22.546875 C 14.851562 -22.460938 14.890625 -22.382812 14.890625 -22.3125 C 14.890625 -22.21875 14.84375 -22.140625 14.75 -22.078125 Z M 8.78125 -18.359375 "/></g></g></g><g fill="#7644ac" fill-opacity="1"><g transform="translate(83.959356, 33.720739)"><g><path d="M 19.421875 -0.859375 C 19.390625 -0.492188 19.332031 -0.175781 19.25 0.09375 C 19.175781 0.363281 19.039062 0.582031 18.84375 0.75 C 18.65625 0.914062 18.398438 1.035156 18.078125 1.109375 C 17.753906 1.179688 17.34375 1.203125 16.84375 1.171875 L 9.984375 0.6875 C 9.222656 0.613281 8.472656 0.488281 7.734375 0.3125 C 6.992188 0.144531 6.289062 -0.0859375 5.625 -0.390625 C 4.96875 -0.703125 4.363281 -1.082031 3.8125 -1.53125 C 3.269531 -1.988281 2.804688 -2.523438 2.421875 -3.140625 C 2.035156 -3.753906 1.75 -4.46875 1.5625 -5.28125 C 1.375 -6.101562 1.316406 -7.035156 1.390625 -8.078125 C 1.484375 -9.359375 1.742188 -10.445312 2.171875 -11.34375 C 2.609375 -12.25 3.160156 -12.992188 3.828125 -13.578125 C 4.492188 -14.171875 5.253906 -14.617188 6.109375 -14.921875 C 6.972656 -15.234375 7.875 -15.445312 8.8125 -15.5625 L 9.328125 -22.984375 C 9.347656 -23.347656 9.394531 -23.664062 9.46875 -23.9375 C 9.539062 -24.21875 9.664062 -24.441406 9.84375 -24.609375 C 10.03125 -24.785156 10.269531 -24.90625 10.5625 -24.96875 C 10.863281 -25.039062 11.257812 -25.0625 11.75 -25.03125 L 18.625 -24.546875 C 19.125 -24.515625 19.523438 -24.441406 19.828125 -24.328125 C 20.140625 -24.210938 20.378906 -24.0625 20.546875 -23.875 C 20.710938 -23.6875 20.816406 -23.445312 20.859375 -23.15625 C 20.898438 -22.875 20.910156 -22.554688 20.890625 -22.203125 Z M 3.625 -7.90625 C 3.570312 -7.125 3.609375 -6.390625 3.734375 -5.703125 C 3.867188 -5.015625 4.101562 -4.398438 4.4375 -3.859375 C 4.769531 -3.316406 5.21875 -2.859375 5.78125 -2.484375 C 6.34375 -2.109375 7.035156 -1.847656 7.859375 -1.703125 L 8.671875 -13.546875 C 7.847656 -13.492188 7.128906 -13.316406 6.515625 -13.015625 C 5.898438 -12.722656 5.390625 -12.328125 4.984375 -11.828125 C 4.578125 -11.328125 4.257812 -10.742188 4.03125 -10.078125 C 3.8125 -9.410156 3.675781 -8.6875 3.625 -7.90625 Z M 3.625 -7.90625 "/></g></g></g><g fill="#7644ac" fill-opacity="1"><g transform="translate(103.832481, 35.065446)"><g><path d="M 15.90625 -0.390625 C 16.195312 -0.347656 16.457031 -0.347656 16.6875 -0.390625 C 16.925781 -0.441406 17.144531 -0.5 17.34375 -0.5625 C 17.539062 -0.632812 17.703125 -0.703125 17.828125 -0.765625 C 17.960938 -0.828125 18.0625 -0.859375 18.125 -0.859375 C 18.21875 -0.835938 18.28125 -0.804688 18.3125 -0.765625 C 18.34375 -0.734375 18.378906 -0.671875 18.421875 -0.578125 L 18.859375 0.328125 C 18.890625 0.421875 18.90625 0.5 18.90625 0.5625 C 18.894531 0.632812 18.863281 0.6875 18.8125 0.71875 C 18.757812 0.757812 18.710938 0.789062 18.671875 0.8125 C 18.296875 1.007812 17.835938 1.207031 17.296875 1.40625 C 16.765625 1.613281 16.148438 1.785156 15.453125 1.921875 C 14.765625 2.054688 13.992188 2.140625 13.140625 2.171875 C 12.285156 2.210938 11.359375 2.160156 10.359375 2.015625 C 9.578125 1.910156 8.804688 1.738281 8.046875 1.5 C 7.285156 1.269531 6.566406 0.96875 5.890625 0.59375 C 5.222656 0.21875 4.613281 -0.226562 4.0625 -0.75 C 3.507812 -1.269531 3.050781 -1.878906 2.6875 -2.578125 C 2.332031 -3.273438 2.078125 -4.0625 1.921875 -4.9375 C 1.773438 -5.8125 1.78125 -6.789062 1.9375 -7.875 C 2.082031 -8.925781 2.347656 -9.847656 2.734375 -10.640625 C 3.117188 -11.441406 3.578125 -12.128906 4.109375 -12.703125 C 4.648438 -13.273438 5.257812 -13.738281 5.9375 -14.09375 C 6.613281 -14.445312 7.328125 -14.710938 8.078125 -14.890625 C 8.835938 -15.066406 9.613281 -15.160156 10.40625 -15.171875 C 11.195312 -15.191406 11.984375 -15.148438 12.765625 -15.046875 C 14.066406 -14.859375 15.253906 -14.535156 16.328125 -14.078125 C 17.398438 -13.628906 18.300781 -13.015625 19.03125 -12.234375 C 19.757812 -11.453125 20.28125 -10.488281 20.59375 -9.34375 C 20.914062 -8.195312 20.96875 -6.84375 20.75 -5.28125 L 20.625 -4.390625 C 20.59375 -4.210938 20.519531 -4.078125 20.40625 -3.984375 C 20.300781 -3.898438 20.140625 -3.867188 19.921875 -3.890625 L 13.46875 -4.8125 C 13.445312 -4.039062 13.503906 -3.378906 13.640625 -2.828125 C 13.785156 -2.285156 13.972656 -1.835938 14.203125 -1.484375 C 14.441406 -1.128906 14.707031 -0.867188 15 -0.703125 C 15.300781 -0.535156 15.601562 -0.429688 15.90625 -0.390625 Z M 18.59375 -6.046875 C 18.707031 -6.878906 18.738281 -7.570312 18.6875 -8.125 C 18.632812 -8.6875 18.523438 -9.144531 18.359375 -9.5 C 18.191406 -9.863281 17.960938 -10.132812 17.671875 -10.3125 C 17.390625 -10.488281 17.09375 -10.601562 16.78125 -10.65625 C 16.539062 -10.6875 16.269531 -10.675781 15.96875 -10.625 C 15.675781 -10.570312 15.390625 -10.410156 15.109375 -10.140625 C 14.828125 -9.867188 14.554688 -9.46875 14.296875 -8.9375 C 14.046875 -8.40625 13.84375 -7.671875 13.6875 -6.734375 Z M 18.59375 -6.046875 "/></g></g></g><g fill="#7644ac" fill-opacity="1"><g transform="translate(123.439948, 37.805615)"><g><path d="M 7.09375 -3.578125 L 4.21875 -0.421875 C 4.09375 -0.273438 3.972656 -0.132812 3.859375 0 C 3.742188 0.144531 3.617188 0.257812 3.484375 0.34375 C 3.347656 0.425781 3.203125 0.488281 3.046875 0.53125 C 2.890625 0.582031 2.707031 0.582031 2.5 0.53125 L 0.734375 0.15625 C 0.578125 0.125 0.457031 0.0625 0.375 -0.03125 C 0.300781 -0.132812 0.28125 -0.257812 0.3125 -0.40625 C 0.332031 -0.5 0.375 -0.601562 0.4375 -0.71875 C 0.5 -0.832031 0.585938 -0.953125 0.703125 -1.078125 L 6.078125 -6.71875 L 3.59375 -14.390625 C 3.519531 -14.617188 3.5 -14.816406 3.53125 -14.984375 C 3.632812 -15.460938 3.992188 -15.632812 4.609375 -15.5 L 13.484375 -13.59375 C 13.992188 -13.488281 14.332031 -13.359375 14.5 -13.203125 C 14.675781 -13.046875 14.804688 -12.851562 14.890625 -12.625 L 16.140625 -8.828125 L 18.34375 -11.234375 C 18.46875 -11.378906 18.585938 -11.519531 18.703125 -11.65625 C 18.816406 -11.789062 18.941406 -11.898438 19.078125 -11.984375 C 19.222656 -12.066406 19.375 -12.128906 19.53125 -12.171875 C 19.6875 -12.222656 19.867188 -12.226562 20.078125 -12.1875 L 21.828125 -11.8125 C 21.992188 -11.78125 22.113281 -11.710938 22.1875 -11.609375 C 22.269531 -11.503906 22.296875 -11.378906 22.265625 -11.234375 C 22.210938 -11.023438 22.082031 -10.804688 21.875 -10.578125 L 17.1875 -5.671875 L 19.953125 2.734375 C 20.003906 2.890625 20.046875 3.035156 20.078125 3.171875 C 20.109375 3.316406 20.113281 3.445312 20.09375 3.5625 C 20.050781 3.738281 19.988281 3.867188 19.90625 3.953125 C 19.820312 4.035156 19.722656 4.085938 19.609375 4.109375 C 19.503906 4.140625 19.390625 4.144531 19.265625 4.125 C 19.148438 4.101562 19.035156 4.078125 18.921875 4.046875 L 9.890625 2.109375 C 9.628906 2.054688 9.414062 1.976562 9.25 1.875 C 9.082031 1.769531 8.945312 1.660156 8.84375 1.546875 C 8.75 1.429688 8.679688 1.3125 8.640625 1.1875 C 8.597656 1.070312 8.5625 0.96875 8.53125 0.875 Z M 7.09375 -3.578125 "/></g></g></g></svg>